<svg width="2032" height="1289" xmlns="http://www.w3.org/2000/svg" xmlns:xlink="http://www.w3.org/1999/xlink" xml:space="preserve" overflow="hidden"><g transform="translate(-1155 -617)"><text font-family="Calibri,Calibri_MSFontService,sans-serif" font-weight="400" font-size="48" transform="matrix(1 0 0 1 1489.32 1128)">P</text><text font-family="Calibri,Calibri_MSFontService,sans-serif" font-weight="400" font-size="32" transform="matrix(1 0 0 1 1513.96 1139)">2</text><text font-family="Calibri,Calibri_MSFontService,sans-serif" font-weight="400" font-size="48" transform="matrix(1 0 0 1 2412.36 1239)">N</text><path d="M25.8698 1.86401C60.0225 21.1689 73.6802 34.1426 93.3542 71.1528" stroke="#000000" stroke-width="3.4375" stroke-miterlimit="8" fill="none" fill-rule="evenodd" transform="matrix(0.3757 -0.926741 -0.926741 -0.3757 2402.63 1563.84)"/><path d="M1970.38 1535.34C1975.44 1496.44 1982.33 1478.91 2009.23 1446.77" stroke="#000000" stroke-width="3.4375" stroke-miterlimit="8" fill="none" fill-rule="evenodd"/><path d="M2001.5 1698.2C2032.37 1608.03 2135.24 1573.69 2200.9 1575.57 2266.57 1577.46 2367.93 1611.41 2395.5 1709.5" stroke="#000000" stroke-width="3.4375" stroke-miterlimit="8" fill="none" fill-rule="evenodd"/><path d="M1428.5 1373.37C1718.84 905.942 2161.42 926.142 2292.8 937.711 2512.53 955.268 2812.4 1095.66 2973.5 1420.5" stroke="#000000" stroke-width="3.4375" stroke-miterlimit="8" fill="none" fill-rule="evenodd"/><path d="M1485.5 1591.5C1618.98 1190.47 1941.9 1065.93 2169.18 1055.5 2399.16 1061.25 2697.42 1139.22 2865.5 1475.09" stroke="#000000" stroke-width="3.4375" stroke-miterlimit="8" fill="none" fill-rule="evenodd"/><path d="M1623.5 1496.3C1743.63 1246.92 2004.91 1152.9 2198.24 1156.6 2391.57 1160.3 2665.97 1255.52 2783.5 1518.5" stroke="#000000" stroke-width="3.4375" stroke-miterlimit="8" fill="none" fill-rule="evenodd"/><path d="M1197.5 1386.5C1197.5 1266.65 1299.36 1169.5 1425 1169.5 1550.64 1169.5 1652.5 1266.65 1652.5 1386.5 1652.5 1506.35 1550.64 1603.5 1425 1603.5 1299.36 1603.5 1197.5 1506.35 1197.5 1386.5Z" stroke="#000000" stroke-width="3.4375" stroke-miterlimit="8" fill="none" fill-rule="evenodd"/><path d="M1414.5 1382.5 2200.94 1803.93" stroke="#000000" stroke-width="3.4375" stroke-miterlimit="8" fill="none" fill-rule="evenodd"/><path d="M0 0 984.905 483.531" stroke="#000000" stroke-width="3.4375" stroke-miterlimit="8" fill="none" fill-rule="evenodd" transform="matrix(-1 0 0 1 3185.4 1318.5)"/><path d="M2121.28 1762.53C2161.54 1723.63 2225.53 1724.48 2264.2 1764.45 2265.55 1765.83 2266.85 1767.26 2268.11 1768.72" stroke="#000000" stroke-width="3.4375" stroke-miterlimit="8" fill="none" fill-rule="evenodd"/><text font-family="Cambria Math,Cambria Math_MSFontService,sans-serif" font-weight="400" font-size="41" transform="matrix(1 0 0 1 2194.78 1724)">θ</text><path d="M1424.5 1386.5 1621.62 1493.25" stroke="#000000" stroke-width="1.14583" stroke-miterlimit="8" fill="none" fill-rule="evenodd"/><path d="M0 0 197.271 391.361" stroke="#000000" stroke-width="3.4375" stroke-miterlimit="8" fill="none" fill-rule="evenodd" transform="matrix(-1 0 0 1 1522.77 1190.5)"/><path d="M1226.5 1279.5 1423.62 1386.25" stroke="#000000" stroke-width="3.4375" stroke-miterlimit="8" fill="none" fill-rule="evenodd"/><path d="M1359.5 1177.5 1487.65 1595.48" stroke="#000000" stroke-width="3.4375" stroke-miterlimit="8" fill="none" fill-rule="evenodd"/><path d="M0 0 427.496 146.507" stroke="#000000" stroke-width="3.4375" stroke-miterlimit="8" fill="none" fill-rule="evenodd" transform="matrix(1 0 0 -1 1212.5 1461.01)"/><text font-family="Calibri,Calibri_MSFontService,sans-serif" font-weight="400" font-size="48" transform="matrix(1 0 0 1 1618.26 1534)">P</text><text font-family="Calibri,Calibri_MSFontService,sans-serif" font-weight="400" font-size="48" transform="matrix(1 0 0 1 1338.62 1218)">3</text><text font-family="Calibri,Calibri_MSFontService,sans-serif" font-weight="400" font-size="48" transform="matrix(1 0 0 1 1218.36 1320)">4</text><text font-family="Calibri,Calibri_MSFontService,sans-serif" font-weight="400" font-size="48" transform="matrix(1 0 0 1 1336.89 1588)">6</text><text font-family="Calibri,Calibri_MSFontService,sans-serif" font-weight="400" font-size="48" transform="matrix(1 0 0 1 1490.58 1585)">7</text><text font-family="Calibri,Calibri_MSFontService,sans-serif" font-weight="400" font-size="48" transform="matrix(1 0 0 1 1599.61 1312)">1</text><text font-family="Calibri,Calibri_MSFontService,sans-serif" font-weight="400" font-size="48" transform="matrix(1 0 0 1 1224.2 1492)">5</text><path d="M1324.5 1578.5C1458.21 1096.02 1822.68 919.414 2103.01 890.376 2383.34 861.337 2834.07 991.886 3006.5 1404.27" stroke="#000000" stroke-width="3.4375" stroke-miterlimit="8" fill="none" fill-rule="evenodd"/><path d="M1213.5 1460.5C1372.7 1000.65 1812.77 776.44 2131.77 757.092 2450.77 737.744 2934.24 892.544 3127.5 1344.41" stroke="#000000" stroke-width="3.4375" stroke-miterlimit="8" fill="none" fill-rule="evenodd"/><path d="M1226.5 1276.63C1446.87 875.833 1848.28 714.103 2167.26 697.51 2486.25 680.917 2988.1 867.921 3185.5 1320.5" stroke="#000000" stroke-width="3.4375" stroke-miterlimit="8" fill="none" fill-rule="evenodd"/><path d="M2102.03 1500C2129.51 1508.77 2183.88 1565.1 2202 1618.62" stroke="#000000" stroke-width="3.4375" stroke-miterlimit="8" fill="none" fill-rule="evenodd"/><path d="M63.7412 6.17956C85.2937 25.3433 121.634 103.447 110.841 148.98" stroke="#000000" stroke-width="3.4375" stroke-miterlimit="8" fill="none" fill-rule="evenodd" transform="matrix(-0.91396 -0.405805 -0.405805 0.91396 2340.67 1535.11)"/><path d="M2165.5 933.5 2198.63 1803.87" stroke="#000000" stroke-width="3.4375" stroke-miterlimit="8" fill="none" fill-rule="evenodd"/><path d="M22.8351 0C56.9878 19.3049 73.6802 36.4223 93.3542 73.4326" stroke="#000000" stroke-width="3.4375" stroke-miterlimit="8" fill="none" fill-rule="evenodd" transform="matrix(-0.590875 -0.806763 -0.806763 0.590875 2072.79 1514.22)"/><path d="M1717.5 1072.5 2200.26 1804.77" stroke="#000000" stroke-width="3.4375" stroke-miterlimit="8" fill="none" fill-rule="evenodd"/><path d="M25.8698 1.86401C60.0225 21.1689 73.6802 34.1426 93.3542 71.1528" stroke="#000000" stroke-width="3.4375" stroke-miterlimit="8" fill="none" fill-rule="evenodd" transform="matrix(-0.821773 -0.569816 -0.569816 0.821773 2455.75 1496.56)"/><path d="M0 0 451.024 740.345" stroke="#000000" stroke-width="3.4375" stroke-miterlimit="8" fill="none" fill-rule="evenodd" transform="matrix(-1 0 0 1 2650.52 1060.5)"/><path d="M1862.59 1553.64C1868.09 1514.8 1875.18 1497.35 1902.46 1465.52" stroke="#000000" stroke-width="3.4375" stroke-miterlimit="8" fill="none" fill-rule="evenodd"/><path d="M25.8698 1.86401C60.0225 21.1689 73.6802 34.1426 93.3542 71.1528" stroke="#000000" stroke-width="3.4375" stroke-miterlimit="8" fill="none" fill-rule="evenodd" transform="matrix(-0.958403 -0.285418 -0.285418 0.958403 1945.03 1498.24)"/><path d="M1547.5 1213.5 2196.22 1800.77" stroke="#000000" stroke-width="3.4375" stroke-miterlimit="8" fill="none" fill-rule="evenodd"/><text font-family="Calibri,Calibri_MSFontService,sans-serif" font-weight="400" font-size="48" transform="matrix(1 0 0 1 1482.88 1218)">2</text><text font-family="Calibri,Calibri_MSFontService,sans-serif" font-weight="400" font-size="48" transform="matrix(1 0 0 1 2181.07 1863)">O</text><text font-family="Calibri,Calibri_MSFontService,sans-serif" font-weight="400" font-size="83" transform="matrix(1 0 0 1 2189.26 1808)">.</text><path d="M25.8699 1.86401C60.0225 21.1689 73.6802 34.1426 93.3542 71.1528" stroke="#000000" stroke-width="3.4375" stroke-miterlimit="8" fill="none" fill-rule="evenodd" transform="matrix(-0.654517 -0.756048 -0.756048 0.654517 2154.21 1421.2)"/><path d="M2041.36 1423.26C2063.46 1390.84 2077.53 1378.32 2116.06 1361.82" stroke="#000000" stroke-width="3.4375" stroke-miterlimit="8" fill="none" fill-rule="evenodd"/><path d="M1930.5 974.5 2201.64 1803.31" stroke="#000000" stroke-width="3.4375" stroke-miterlimit="8" fill="none" fill-rule="evenodd"/><path d="M25.8698 1.86401C60.0225 21.1689 73.6802 34.1426 93.3542 71.1528" stroke="#000000" stroke-width="3.4375" stroke-miterlimit="8" fill="none" fill-rule="evenodd" transform="matrix(-0.189356 -0.981909 -0.981909 0.189356 2346.5 1440.14)"/><path d="M25.8698 1.86401C60.0225 21.1689 73.6802 34.1426 93.3542 71.1528" stroke="#000000" stroke-width="3.4375" stroke-miterlimit="8" fill="none" fill-rule="evenodd" transform="matrix(-0.681339 -0.731968 -0.731968 0.681339 2387.38 1416.45)"/><path d="M0 0 232.041 832.485" stroke="#000000" stroke-width="3.4375" stroke-miterlimit="8" fill="none" fill-rule="evenodd" transform="matrix(-1 0 0 1 2431.54 963.5)"/><path d="M25.8698 1.86401C60.0225 21.1689 73.6802 34.1426 93.3542 71.1528" stroke="#000000" stroke-width="3.4375" stroke-miterlimit="8" fill="none" fill-rule="evenodd" transform="matrix(0.413491 -0.910508 -0.910508 -0.413491 2525.75 1597.33)"/><path d="M2464.73 1492.1C2502.89 1501.2 2519.61 1509.89 2548.76 1540.01" stroke="#000000" stroke-width="3.4375" stroke-miterlimit="8" fill="none" fill-rule="evenodd"/><path d="M0 0 642.878 577.414" stroke="#000000" stroke-width="3.4375" stroke-miterlimit="8" fill="none" fill-rule="evenodd" transform="matrix(-1 0 0 1 2842.38 1226.5)"/><text font-family="Calibri,Calibri_MSFontService,sans-serif" font-weight="400" font-size="48" transform="matrix(1 0 0 1 1560.17 1228)">C</text><text font-family="Calibri,Calibri_MSFontService,sans-serif" font-weight="400" font-size="32" transform="matrix(1 0 0 1 1585.95 1239)">1</text><text font-family="Calibri,Calibri_MSFontService,sans-serif" font-weight="400" font-size="48" transform="matrix(1 0 0 1 1729.43 1094)">C</text><text font-family="Calibri,Calibri_MSFontService,sans-serif" font-weight="400" font-size="32" transform="matrix(1 0 0 1 1755.21 1105)">2</text><text font-family="Calibri,Calibri_MSFontService,sans-serif" font-weight="400" font-size="48" transform="matrix(1 0 0 1 1939.62 1005)">C</text><text font-family="Calibri,Calibri_MSFontService,sans-serif" font-weight="400" font-size="32" transform="matrix(1 0 0 1 1965.4 1016)">3</text><text font-family="Calibri,Calibri_MSFontService,sans-serif" font-weight="400" font-size="48" transform="matrix(1 0 0 1 2169.01 972)">C</text><text font-family="Calibri,Calibri_MSFontService,sans-serif" font-weight="400" font-size="32" transform="matrix(1 0 0 1 2194.79 983)">4</text><text font-family="Calibri,Calibri_MSFontService,sans-serif" font-weight="400" font-size="48" transform="matrix(1 0 0 1 2430.28 1003)">C</text><text font-family="Calibri,Calibri_MSFontService,sans-serif" font-weight="400" font-size="32" transform="matrix(1 0 0 1 2456.06 1014)">5</text><text font-family="Calibri,Calibri_MSFontService,sans-serif" font-weight="400" font-size="48" transform="matrix(1 0 0 1 2642.11 1103)">C</text><text font-family="Calibri,Calibri_MSFontService,sans-serif" font-weight="400" font-size="32" transform="matrix(1 0 0 1 2667.89 1114)">6</text><text font-family="Calibri,Calibri_MSFontService,sans-serif" font-weight="400" font-size="48" transform="matrix(1 0 0 1 2823.99 1272)">C</text><text font-family="Calibri,Calibri_MSFontService,sans-serif" font-weight="400" font-size="32" transform="matrix(1 0 0 1 2849.77 1283)">7</text><path d="M1595.76 1418.79C1559.86 1434.6 1548.16 1436.21 1506.74 1429.82" stroke="#000000" stroke-width="3.4375" stroke-miterlimit="8" fill="none" fill-rule="evenodd"/><path d="M1539.48 1208.68C1515.68 1177.49 1511.38 1166.5 1507.86 1124.74" stroke="#000000" stroke-width="3.4375" stroke-miterlimit="8" fill="none" fill-rule="evenodd"/><path d="M1716.03 913.89C1724.02 875.481 1729.51 865.03 1758.77 835.024" stroke="#000000" stroke-width="3.4375" stroke-miterlimit="8" fill="none" fill-rule="evenodd"/><path d="M2102.97 711.735C2139.26 696.841 2150.99 695.533 2192.24 702.967" stroke="#000000" stroke-width="1.14583" stroke-miterlimit="8" fill="none" fill-rule="evenodd"/><path d="M31.2428 0C65.3955 19.3049 73.6802 27.7144 93.3542 64.7246" stroke="#000000" stroke-width="3.4375" stroke-miterlimit="8" fill="none" fill-rule="evenodd" transform="matrix(0.304383 -0.95255 -0.95255 -0.304383 2620.89 918.074)"/><path d="M31.2428 0C65.3955 19.3049 73.6802 27.7144 93.3542 64.7246" stroke="#000000" stroke-width="3.4375" stroke-miterlimit="8" fill="none" fill-rule="evenodd" transform="matrix(0.909471 -0.415768 -0.415768 -0.909471 2806.8 1182.92)"/><path d="M31.2428 0C65.3955 19.3049 73.6802 27.7144 93.3542 64.7246" stroke="#000000" stroke-width="3.4375" stroke-miterlimit="8" fill="none" fill-rule="evenodd" transform="matrix(-0.343191 0.939265 0.939265 0.343191 2768.99 1420.08)"/><path d="M1650.76 1473.79C1614.86 1489.6 1603.16 1491.21 1561.74 1484.82" stroke="#000000" stroke-width="3.4375" stroke-miterlimit="8" fill="none" fill-rule="evenodd"/><path d="M31.2428 0C65.3955 19.3049 73.6802 27.7144 93.3542 64.7246" stroke="#000000" stroke-width="3.4375" stroke-miterlimit="8" fill="none" fill-rule="evenodd" transform="matrix(0.605772 0.795639 0.795639 -0.605772 2788.01 1414.52)"/><path d="M1612.64 1488.58C1607.68 1485.19 1585.86 1483.02 1553.5 1434.54 1524.2 1384.54 1492.77 1282.33 1522.44 1188.99 1546.51 1065.34 1653.65 934.057 1729.41 872.023 1855.31 752.456 2010.03 713.183 2139.72 697.997 2270.72 691.908 2504.16 741.815 2619.69 847.539 2728.3 935.871 2789.39 1020.83 2846.68 1153.57 2877.04 1246.22 2897.97 1359.23 2855.56 1450.44 2829.79 1494.3 2782.42 1515.83 2785.72 1514.44" stroke="#000000" stroke-width="6.875" stroke-miterlimit="8" fill="none" fill-rule="evenodd"/><text font-family="Calibri,Calibri_MSFontService,sans-serif" font-weight="400" font-size="48" transform="matrix(1 0 0 1 1501.01 1419)">P</text><text font-family="Calibri,Calibri_MSFontService,sans-serif" font-weight="400" font-size="32" transform="matrix(1 0 0 1 1525.65 1430)">1</text><text font-family="Calibri,Calibri_MSFontService,sans-serif" font-weight="400" font-size="48" transform="matrix(1 0 0 1 1688.72 858)">P</text><text font-family="Calibri,Calibri_MSFontService,sans-serif" font-weight="400" font-size="32" transform="matrix(1 0 0 1 1713.36 869)">3</text><text font-family="Calibri,Calibri_MSFontService,sans-serif" font-weight="400" font-size="48" transform="matrix(1 0 0 1 2117.96 679)">P</text><text font-family="Calibri,Calibri_MSFontService,sans-serif" font-weight="400" font-size="32" transform="matrix(1 0 0 1 2142.6 690)">4</text><text font-family="Calibri,Calibri_MSFontService,sans-serif" font-weight="400" font-size="48" transform="matrix(1 0 0 1 2618.6 840)">P</text><text font-family="Calibri,Calibri_MSFontService,sans-serif" font-weight="400" font-size="32" transform="matrix(1 0 0 1 2643.24 851)">5</text><text font-family="Calibri,Calibri_MSFontService,sans-serif" font-weight="400" font-size="48" transform="matrix(1 0 0 1 2855.76 1169)">P</text><text font-family="Calibri,Calibri_MSFontService,sans-serif" font-weight="400" font-size="32" transform="matrix(1 0 0 1 2880.39 1180)">6</text><text font-family="Calibri,Calibri_MSFontService,sans-serif" font-weight="400" font-size="48" transform="matrix(1 0 0 1 2873.87 1445)">P</text><text font-family="Calibri,Calibri_MSFontService,sans-serif" font-weight="400" font-size="32" transform="matrix(1 0 0 1 2898.51 1456)">7</text><path d="M22.8351 0C56.9878 19.3049 73.6802 36.4223 93.3542 73.4326" stroke="#000000" stroke-width="3.4375" stroke-miterlimit="8" fill="none" fill-rule="evenodd" transform="matrix(-0.0996798 -0.99502 -0.99502 0.0996798 2828.03 1087.3)"/><text font-family="Calibri,Calibri_MSFontService,sans-serif" font-weight="400" font-size="48" transform="matrix(1 0 0 1 2776.09 1010)">M</text><path d="M1594.48 1263.68C1570.68 1232.49 1566.38 1221.5 1562.86 1179.74" stroke="#000000" stroke-width="1.14583" stroke-miterlimit="8" fill="none" fill-rule="evenodd"/><path d="M2558.27 1065.84C2546.13 1028.54 2545.7 1016.74 2556.2 976.163" stroke="#000000" stroke-width="1.14583" stroke-miterlimit="8" fill="none" fill-rule="evenodd"/><text font-family="Calibri,Calibri_MSFontService,sans-serif" font-weight="400" font-size="48" transform="matrix(1 0 0 1 2507.43 1036)">Q</text><path d="M0 0 352.044 799.225" stroke="#000000" stroke-width="3.4375" stroke-miterlimit="8" fill="none" fill-rule="evenodd" transform="matrix(-1 0 0 1 2550.54 1002.5)"/><path d="M0 0 530.156 326.682" stroke="#000000" stroke-width="3.4375" stroke-miterlimit="8" fill="none" fill-rule="evenodd" transform="matrix(-1 0 0 1 2987.66 886.5)"/><text font-family="Calibri,Calibri_MSFontService,sans-serif" font-weight="400" font-size="48" transform="matrix(1 0 0 1 2453.5 1213)">.</text><text font-family="Calibri,Calibri_MSFontService,sans-serif" font-weight="400" font-size="48" transform="matrix(1 0 0 1 2999.82 896)">N’</text><path d="M2587.5 718.5 2957.2 1307.17" stroke="#000000" stroke-width="3.4375" stroke-miterlimit="8" fill="none" fill-rule="evenodd"/><text font-family="Calibri,Calibri_MSFontService,sans-serif" font-weight="400" font-size="48" transform="matrix(1 0 0 1 2563.42 709)">T</text><text font-family="Calibri,Calibri_MSFontService,sans-serif" font-weight="400" font-size="48" transform="matrix(1 0 0 1 2955.7 1350)">T’</text><path d="M0.209804-0.533119 560.724 220.052 560.305 221.118-0.209804 0.533119ZM559.606 210.376 598.899 235.691 552.892 227.436Z" transform="matrix(1 0 0 -1 2202.5 1800.19)"/><path d="M18.4452 1.39823C52.5979 17.1047 73.6802 38.7383 93.3542 68.8499" stroke="#000000" stroke-width="1.14583" stroke-miterlimit="8" fill="none" fill-rule="evenodd" transform="matrix(0.493989 -0.869468 -0.869468 -0.493989 2795.83 1629.09)"/><text font-family="Calibri,Calibri_MSFontService,sans-serif" font-weight="400" font-size="48" transform="matrix(1 0 0 1 2768.78 1557)">A</text><text font-family="Calibri,Calibri_MSFontService,sans-serif" font-weight="400" font-size="50" transform="matrix(0.945634 -0.325232 0.325232 0.945634 2525.09 1717)">R</text><path d="M1428 1388.9 1238.74 1388.34 1238.76 1384.9 1428.01 1385.46ZM1243.31 1395.8 1197.5 1386.5 1243.36 1377.47Z"/><text font-family="Calibri,Calibri_MSFontService,sans-serif" font-weight="400" font-size="48" transform="matrix(1 0 0 1 1318.39 1382)">r</text><text font-family="Calibri,Calibri_MSFontService,sans-serif" font-weight="400" font-size="48" transform="matrix(1 0 0 1 1432.38 1395)">C</text></g></svg>