<svg width="1743" height="1205" xmlns="http://www.w3.org/2000/svg" xmlns:xlink="http://www.w3.org/1999/xlink" xml:space="preserve" overflow="hidden"><g transform="translate(-1332 -701)"><text font-family="Calibri,Calibri_MSFontService,sans-serif" font-weight="400" font-size="48" transform="matrix(1 0 0 1 2181.07 1863)">O</text><text font-family="Calibri,Calibri_MSFontService,sans-serif" font-weight="400" font-size="83" transform="matrix(1 0 0 1 2189.26 1808)">.</text><path d="M1464.5 1159.5 2200.85 1803.97" stroke="#000000" stroke-width="1.14583" stroke-miterlimit="8" fill="none" fill-rule="evenodd"/><path d="M0 0 712.141 671.684" stroke="#000000" stroke-width="1.14583" stroke-miterlimit="8" fill="none" fill-rule="evenodd" transform="matrix(-1 0 0 1 2912.64 1130.5)"/><path d="M2138.03 1749.42C2173.63 1727.14 2219.15 1728.99 2252.49 1754.1" stroke="#000000" stroke-width="1.14583" stroke-miterlimit="8" fill="none" fill-rule="evenodd"/><text font-family="Cambria Math,Cambria Math_MSFontService,sans-serif" font-weight="400" font-size="41" transform="matrix(1 0 0 1 2192.64 1724)">θ</text><path d="M1400.5 1328C1400.5 1186.34 1517.58 1071.5 1662 1071.5 1806.42 1071.5 1923.5 1186.34 1923.5 1328 1923.5 1469.66 1806.42 1584.5 1662 1584.5 1517.58 1584.5 1400.5 1469.66 1400.5 1328Z" stroke="#000000" stroke-width="1.14583" stroke-miterlimit="8" fill="none" fill-rule="evenodd"/><text font-family="Calibri,Calibri_MSFontService,sans-serif" font-weight="400" font-size="48" transform="matrix(1 0 0 1 1659.79 1336)">.</text><text font-family="Calibri,Calibri_MSFontService,sans-serif" font-weight="400" font-size="48" transform="matrix(1 0 0 1 1481.59 1171)">P</text><text font-family="Calibri,Calibri_MSFontService,sans-serif" font-weight="400" font-size="48" transform="matrix(1 0 0 1 1691.19 1363)">C</text><path d="M0 0 339.563 390.629" stroke="#000000" stroke-width="1.14583" stroke-miterlimit="8" fill="none" fill-rule="evenodd" transform="matrix(1 0 0 -1 1494.5 1526.13)"/><path d="M0 0 525.096 33.4038" stroke="#000000" stroke-width="1.14583" stroke-miterlimit="8" fill="none" fill-rule="evenodd" transform="matrix(1 0 0 -1 1399.5 1347.9)"/><path d="M1685.83 1585.39 1641.5 1071.5" stroke="#000000" stroke-width="1.14583" stroke-miterlimit="8" fill="none" fill-rule="evenodd"/><text font-family="Calibri,Calibri_MSFontService,sans-serif" font-weight="400" font-size="48" transform="matrix(1 0 0 1 1609.82 1065)">1</text><text font-family="Calibri,Calibri_MSFontService,sans-serif" font-weight="400" font-size="48" transform="matrix(1 0 0 1 1859.9 1152)">2</text><text font-family="Calibri,Calibri_MSFontService,sans-serif" font-weight="400" font-size="48" transform="matrix(1 0 0 1 1888.98 1356)">3</text><text font-family="Calibri,Calibri_MSFontService,sans-serif" font-weight="400" font-size="48" transform="matrix(1 0 0 1 1844.74 1543)">4</text><text font-family="Calibri,Calibri_MSFontService,sans-serif" font-weight="400" font-size="48" transform="matrix(1 0 0 1 1677.41 1634)">5</text><text font-family="Calibri,Calibri_MSFontService,sans-serif" font-weight="400" font-size="48" transform="matrix(1 0 0 1 1467.52 1564)">6</text><text font-family="Calibri,Calibri_MSFontService,sans-serif" font-weight="400" font-size="48" transform="matrix(1 0 0 1 1365.44 1379)">7</text><path d="M1464.5 1159.5C1625.66 948.102 1926.16 828.788 2167.33 823.746 2408.49 818.705 2663.77 889.989 2911.5 1129.25" stroke="#000000" stroke-width="1.14583" stroke-miterlimit="8" fill="none" fill-rule="evenodd"/><path d="M1399.5 1347.5C1532.65 1080.74 1867.22 897.576 2129.33 879.216 2352.33 861.55 2624.97 926.879 2868.5 1168.66" stroke="#000000" stroke-width="1.14583" stroke-miterlimit="8" fill="none" fill-rule="evenodd"/><path d="M1496.5 1523.5C1679.91 1135.98 1953.06 1050.88 2180.44 1041.5 2410.5 1046.67 2597.76 1125.13 2750.5 1279.78" stroke="#000000" stroke-width="1.14583" stroke-miterlimit="8" fill="none" fill-rule="evenodd"/><path d="M1668.5 1328.5C1785.44 1154.52 2018.25 1079.91 2192.61 1082.57 2366.98 1085.23 2563.39 1134.65 2721.5 1310.11" stroke="#000000" stroke-width="1.14583" stroke-miterlimit="8" fill="none" fill-rule="evenodd"/><path d="M1685.5 1580.5C1818.87 1323.6 2009.02 1242.83 2221.16 1238.5 2409.52 1243.86 2559.89 1360.64 2607.5 1420.24" stroke="#000000" stroke-width="1.14583" stroke-miterlimit="8" fill="none" fill-rule="evenodd"/><path d="M1855.5 1502.5C1966.07 1381.86 2105.86 1350.46 2214.27 1351.53 2388.86 1354.01 2536.59 1482.22 2533.45 1485.95" stroke="#000000" stroke-width="1.14583" stroke-miterlimit="8" fill="none" fill-rule="evenodd"/><path d="M1620.5 1012.5 2199.24 1805.67" stroke="#000000" stroke-width="1.14583" stroke-miterlimit="8" fill="none" fill-rule="evenodd"/><path d="M1791.5 910.5 2198.4 1804.81" stroke="#000000" stroke-width="1.14583" stroke-miterlimit="8" fill="none" fill-rule="evenodd"/><path d="M1979.5 848.5 2197.97 1802.15" stroke="#000000" stroke-width="1.14583" stroke-miterlimit="8" fill="none" fill-rule="evenodd"/><path d="M2171.5 823.5 2202.91 1800.72" stroke="#000000" stroke-width="1.14583" stroke-miterlimit="8" fill="none" fill-rule="evenodd"/><path d="M0 0 182.714 960.621" stroke="#000000" stroke-width="1.14583" stroke-miterlimit="8" fill="none" fill-rule="evenodd" transform="matrix(-1 0 0 1 2383.21 840.5)"/><path d="M0 0 379.46 900.056" stroke="#000000" stroke-width="1.14583" stroke-miterlimit="8" fill="none" fill-rule="evenodd" transform="matrix(-1 0 0 1 2579.96 902.5)"/><path d="M0 0 556.584 797.027" stroke="#000000" stroke-width="1.14583" stroke-miterlimit="8" fill="none" fill-rule="evenodd" transform="matrix(-1 0 0 1 2756.08 1003.5)"/><text font-family="Calibri,Calibri_MSFontService,sans-serif" font-weight="400" font-size="48" transform="matrix(1 0 0 1 1781.21 1238)">C</text><text font-family="Calibri,Calibri_MSFontService,sans-serif" font-weight="400" font-size="32" transform="matrix(1 0 0 1 1806.99 1249)">1</text><text font-family="Calibri,Calibri_MSFontService,sans-serif" font-weight="400" font-size="48" transform="matrix(1 0 0 1 1906.65 1168)">C</text><text font-family="Calibri,Calibri_MSFontService,sans-serif" font-weight="400" font-size="32" transform="matrix(1 0 0 1 1932.43 1179)">2</text><text font-family="Calibri,Calibri_MSFontService,sans-serif" font-weight="400" font-size="48" transform="matrix(1 0 0 1 2043.3 1128)">C</text><text font-family="Calibri,Calibri_MSFontService,sans-serif" font-weight="400" font-size="32" transform="matrix(1 0 0 1 2069.08 1139)">3</text><text font-family="Calibri,Calibri_MSFontService,sans-serif" font-weight="400" font-size="48" transform="matrix(1 0 0 1 2182.36 1118)">C</text><text font-family="Calibri,Calibri_MSFontService,sans-serif" font-weight="400" font-size="32" transform="matrix(1 0 0 1 2208.14 1129)">4</text><text font-family="Calibri,Calibri_MSFontService,sans-serif" font-weight="400" font-size="48" transform="matrix(1 0 0 1 2332.08 1133)">C</text><text font-family="Calibri,Calibri_MSFontService,sans-serif" font-weight="400" font-size="32" transform="matrix(1 0 0 1 2357.86 1144)">5</text><text font-family="Calibri,Calibri_MSFontService,sans-serif" font-weight="400" font-size="48" transform="matrix(1 0 0 1 2475.82 1179)">C</text><text font-family="Calibri,Calibri_MSFontService,sans-serif" font-weight="400" font-size="32" transform="matrix(1 0 0 1 2501.6 1190)">6</text><text font-family="Calibri,Calibri_MSFontService,sans-serif" font-weight="400" font-size="48" transform="matrix(1 0 0 1 2600.56 1251)">C</text><text font-family="Calibri,Calibri_MSFontService,sans-serif" font-weight="400" font-size="32" transform="matrix(1 0 0 1 2626.34 1262)">7</text><text font-family="Calibri,Calibri_MSFontService,sans-serif" font-weight="400" font-size="48" transform="matrix(1 0 0 1 2708.91 1348)">C</text><text font-family="Calibri,Calibri_MSFontService,sans-serif" font-weight="400" font-size="32" transform="matrix(1 0 0 1 2734.69 1359)">8</text><path d="M1694.27 1288.85C1667.16 1260.49 1661.66 1250.05 1653.53 1208.93" stroke="#000000" stroke-width="1.14583" stroke-miterlimit="8" fill="none" fill-rule="evenodd"/><path d="M1971.85 1343.27C1933.17 1336.73 1922.52 1331.64 1891.44 1303.52" stroke="#000000" stroke-width="1.14583" stroke-miterlimit="8" fill="none" fill-rule="evenodd"/><path d="M2232.13 1339.42C2195.41 1353.24 2183.65 1354.2 2142.63 1345.55" stroke="#000000" stroke-width="1.14583" stroke-miterlimit="8" fill="none" fill-rule="evenodd"/><path d="M2502.58 1278.56C2476.04 1307.44 2465.97 1313.61 2425.46 1324.38" stroke="#000000" stroke-width="1.14583" stroke-miterlimit="8" fill="none" fill-rule="evenodd"/><path d="M2724.09 1184.24C2723.02 1223.46 2719.47 1234.71 2695.98 1269.43" stroke="#000000" stroke-width="1.14583" stroke-miterlimit="8" fill="none" fill-rule="evenodd"/><path d="M2850.03 1118.71C2865.3 1154.85 2866.73 1166.56 2859.72 1207.89" stroke="#000000" stroke-width="1.14583" stroke-miterlimit="8" fill="none" fill-rule="evenodd"/><path d="M2881.17 1099.57C2909.98 1126.19 2916.12 1136.28 2926.78 1176.81" stroke="#000000" stroke-width="1.14583" stroke-miterlimit="8" fill="none" fill-rule="evenodd"/><path d="M1514.98 1221.03C1511.27 1181.97 1513.42 1170.37 1532.52 1133.05" stroke="#000000" stroke-width="1.14583" stroke-miterlimit="8" fill="none" fill-rule="evenodd"/><text font-family="Calibri,Calibri_MSFontService,sans-serif" font-weight="400" font-size="48" transform="matrix(1 0 0 1 1525.57 1187)">P</text><text font-family="Calibri,Calibri_MSFontService,sans-serif" font-weight="400" font-size="32" transform="matrix(1 0 0 1 1550.2 1198)">1</text><text font-family="Calibri,Calibri_MSFontService,sans-serif" font-weight="400" font-size="48" transform="matrix(1 0 0 1 1662.89 1245)">P</text><text font-family="Calibri,Calibri_MSFontService,sans-serif" font-weight="400" font-size="32" transform="matrix(1 0 0 1 1687.52 1256)">2</text><text font-family="Calibri,Calibri_MSFontService,sans-serif" font-weight="400" font-size="48" transform="matrix(1 0 0 1 1921.28 1312)">P</text><text font-family="Calibri,Calibri_MSFontService,sans-serif" font-weight="400" font-size="32" transform="matrix(1 0 0 1 1945.92 1323)">3</text><text font-family="Calibri,Calibri_MSFontService,sans-serif" font-weight="400" font-size="48" transform="matrix(1 0 0 1 2164.8 1330)">P</text><text font-family="Calibri,Calibri_MSFontService,sans-serif" font-weight="400" font-size="32" transform="matrix(1 0 0 1 2189.43 1341)">4</text><text font-family="Calibri,Calibri_MSFontService,sans-serif" font-weight="400" font-size="48" transform="matrix(1 0 0 1 2444.64 1289)">P</text><text font-family="Calibri,Calibri_MSFontService,sans-serif" font-weight="400" font-size="32" transform="matrix(1 0 0 1 2469.27 1300)">5</text><text font-family="Calibri,Calibri_MSFontService,sans-serif" font-weight="400" font-size="48" transform="matrix(1 0 0 1 2704.07 1215)">P</text><text font-family="Calibri,Calibri_MSFontService,sans-serif" font-weight="400" font-size="32" transform="matrix(1 0 0 1 2728.7 1226)">6</text><text font-family="Calibri,Calibri_MSFontService,sans-serif" font-weight="400" font-size="48" transform="matrix(1 0 0 1 2812.67 1161)">P</text><text font-family="Calibri,Calibri_MSFontService,sans-serif" font-weight="400" font-size="32" transform="matrix(1 0 0 1 2837.31 1172)">7</text><text font-family="Calibri,Calibri_MSFontService,sans-serif" font-weight="400" font-size="48" transform="matrix(1 0 0 1 2909.65 1126)">P</text><text font-family="Calibri,Calibri_MSFontService,sans-serif" font-weight="400" font-size="32" transform="matrix(1 0 0 1 2934.29 1137)">8</text><path d="M2912.5 1130.5C2752.21 1258.21 2423.77 1336.08 2188.88 1349.39 1953.99 1362.7 1600.65 1253.52 1465.5 1157.67" stroke="#000000" stroke-width="6.875" stroke-miterlimit="8" fill="none" fill-rule="evenodd"/><path d="M2557.48 1253.67C2594.63 1266.27 2604.34 1272.99 2630.56 1305.68" stroke="#000000" stroke-width="1.14583" stroke-miterlimit="8" fill="none" fill-rule="evenodd"/><text font-family="Calibri,Calibri_MSFontService,sans-serif" font-weight="400" font-size="48" transform="matrix(1 0 0 1 2585.85 1327)">M</text><path d="M2384.92 1163.83C2397.88 1126.8 2404.7 1117.16 2437.65 1091.25" stroke="#000000" stroke-width="1.14583" stroke-miterlimit="8" fill="none" fill-rule="evenodd"/><text font-family="Calibri,Calibri_MSFontService,sans-serif" font-weight="400" font-size="48" transform="matrix(1 0 0 1 2381.7 1104)">Q</text><path d="M0 0 287.922 931.554" stroke="#000000" stroke-width="1.14583" stroke-miterlimit="8" fill="none" fill-rule="evenodd" transform="matrix(-1 0 0 1 2488.42 869.5)"/><text font-family="Calibri,Calibri_MSFontService,sans-serif" font-weight="400" font-size="48" transform="matrix(1 0 0 1 2489.3 863)">S</text><path d="M2644.42 1429.61 2467.5 781.5" stroke="#000000" stroke-width="4.58333" stroke-miterlimit="8" fill="none" fill-rule="evenodd"/><text font-family="Calibri,Calibri_MSFontService,sans-serif" font-weight="400" font-size="48" transform="matrix(1 0 0 1 2450.21 762)">N</text><text font-family="Calibri,Calibri_MSFontService,sans-serif" font-weight="400" font-size="48" transform="matrix(1 0 0 1 2602.86 1464)">N’</text><path d="M0 0 723.644 197.492" stroke="#000000" stroke-width="4.58333" stroke-miterlimit="8" fill="none" fill-rule="evenodd" transform="matrix(-1 0 0 1 2975.14 1174.5)"/><text font-family="Calibri,Calibri_MSFontService,sans-serif" font-weight="400" font-size="48" transform="matrix(1 0 0 1 2220.65 1393)">T</text><text font-family="Calibri,Calibri_MSFontService,sans-serif" font-weight="400" font-size="48" transform="matrix(1 0 0 1 2985.82 1190)">T’</text><path d="M1.20971 1.63401C35.3624 17.3405 99.366 72.9789 119.04 103.091" stroke="#000000" stroke-width="1.14583" stroke-miterlimit="8" fill="none" fill-rule="evenodd" transform="matrix(0.171792 -0.985133 -0.985133 -0.171792 2994.93 1265.42)"/><path d="M0.702602-0.905143 747.179 578.535 745.774 580.346-0.702602 0.905143ZM751.287 565.768 764.579 593.492 734.424 587.491Z" transform="matrix(1 0 0 -1 2202 1800.49)"/><text font-family="Calibri,Calibri_MSFontService,sans-serif" font-weight="400" font-size="41" transform="matrix(0.803423 -0.595409 0.595409 0.803423 2538.61 1593)">R</text><path d="M0.432218-1.06119 222.288 89.2996 221.423 91.4219-0.432218 1.06119ZM222.797 75.8976 243.079 99.0051 212.424 101.366Z" transform="matrix(-1 0 0 1 1665.08 1331)"/><text font-family="Calibri,Calibri_MSFontService,sans-serif" font-weight="400" font-size="32" transform="matrix(0.933208 -0.359338 0.359338 0.933208 1526.53 1383)">r</text><text font-family="Calibri,Calibri_MSFontService,sans-serif" font-weight="400" font-size="48" transform="matrix(1 0 0 1 1433.97 1161)">8</text></g></svg>